<svg id="Capa_1" data-name="Capa 1" xmlns="http://www.w3.org/2000/svg" viewBox="0 0 1282.53 372"><defs><style>.cls-1{fill:#fff;}</style></defs><path class="cls-1" d="M1280,652.36v-.07a1.34,1.34,0,0,1,0-.2c-97.94,1.21-154.48,31.4-162.67,36a.51.51,0,0,0-.29.41v.26a.56.56,0,0,1-.39.44c-10.39,4.54-67.69,28.43-157,27.43-97.89-1.09-154.57-31.14-163.16-35.94a.46.46,0,0,1-.27-.55l.05-.14c.09-.22-.05-.45-.36-.59C785.11,674.72,727.91,651,638.9,652c-97.53,1.09-154.15,30.93-163,35.89-.3.17-.38.43-.22.65s.07.54-.29.7c-11,4.79-68.44,28.4-157.13,27.41-97.88-1.09-154.57-31.14-163.15-35.95a.45.45,0,0,1-.28-.54l.06-.14c.08-.23-.06-.46-.36-.59-10.73-4.68-67.93-28.36-156.93-27.37l2.45.06v371.29c0,.31.41.56.91.56H1279.09c.5,0,.91-.25.91-.56V652.89a.39.39,0,0,1,.08-.2C1280.05,652.58,1280,652.47,1280,652.36Z" transform="translate(2.45 -652)"/></svg>